<?xml version="1.0" encoding="UTF-8"?>
<svg id="Layer_1" xmlns="http://www.w3.org/2000/svg" version="1.1" viewBox="0 0 23.9 19">
  <!-- Generator: Adobe Illustrator 29.1.0, SVG Export Plug-In . SVG Version: 2.1.0 Build 142)  -->
  <defs>
    <style>
      .st0 {
        fill: #0e1a0f;
      }
    </style>
  </defs>
  <path class="st0" d="M21.5,7.8V.9c0-.2,0-.4-.3-.6-.2-.2-.4-.3-.6-.3H3.5c-.2,0-.4,0-.6.3-.2.2-.3.4-.3.6v6.9c-.7,0-1.3.3-1.8.8s-.8,1.1-.8,1.8v8.6h1.9v-1.7h20.1v1.7h1.9v-8.6c0-.7-.3-1.3-.8-1.8s-1.1-.8-1.8-.8h.2ZM11.2,7.8h-6.4v-1.7c0-.2,0-.4.3-.6.2-.2.4-.3.6-.3h4.7c.2,0,.4,0,.6.3.2.2.3.4.3.6v1.7h0ZM13.1,6.1c0-.2,0-.5.2-.6.2-.2.4-.3.6-.3h4.7c.2,0,.4,0,.6.3.2.2.3.4.3.6v1.7h-6.4v-1.7h0Z"/>
</svg>