<?xml version="1.0" encoding="UTF-8"?>
<svg id="Layer_1" xmlns="http://www.w3.org/2000/svg" version="1.1" viewBox="0 0 200 200">
  <!-- Generator: Adobe Illustrator 29.1.0, SVG Export Plug-In . SVG Version: 2.1.0 Build 142)  -->
  <defs>
    <style>
      .st0 {
        fill: #001400;
      }
    </style>
  </defs>
  <path class="st0" d="M196.8,110.2l-18.2-8.3c-.5-.2-.9-.7-.9-1.3s.3-1.1.9-1.3l18.2-8.3c1.3-.6,2-1.9,1.8-3.3s-1.2-2.5-2.6-2.7l-19.8-3.3c-.6,0-1-.5-1.2-1.1s0-1.1.5-1.5l15.5-12.8c1.1-.9,1.5-2.3.9-3.7-.5-1.3-1.8-2.1-3.2-1.9l-20,1.9c-.6,0-1.1-.2-1.4-.7-.3-.5-.3-1.1,0-1.6l11.6-16.3c.8-1.2.8-2.6,0-3.8-.9-1.1-2.3-1.5-3.6-1l-18.8,7c-.6.2-1.1,0-1.6-.3s-.5-1-.3-1.6l7-18.8c.5-1.3,0-2.8-1-3.6-1.1-.9-2.6-.9-3.8,0l-16.3,11.6c-.5.3-1.1.4-1.6,0-.5-.3-.8-.8-.7-1.4l1.9-20c.1-1.4-.6-2.7-1.9-3.2-1.3-.5-2.7-.2-3.7.9l-12.8,15.5c-.4.5-.9.6-1.5.5-.6-.2-1-.6-1.1-1.2l-3.3-19.8c-.2-1.4-1.3-2.4-2.7-2.6-1.4-.2-2.7.5-3.3,1.8l-8.3,18.2c-.5,1.1-2.2,1.1-2.7,0l-8.3-18.2c-.6-1.3-1.9-2-3.3-1.8s-2.5,1.2-2.7,2.6l-3.3,19.8c0,.6-.5,1-1.1,1.2s-1.1,0-1.5-.5l-12.8-15.5c-.9-1.1-2.3-1.5-3.7-.9-1.3.5-2.1,1.8-1.9,3.2l1.9,20c0,.6-.2,1.1-.7,1.4-.5.3-1.1.3-1.6,0l-16.3-11.6c-1.2-.8-2.6-.8-3.8,0-1.1.9-1.5,2.3-1,3.6l7,18.8c.2.6,0,1.1-.3,1.6-.4.4-1,.5-1.6.3l-18.8-7c-1.3-.5-2.8,0-3.6,1-.9,1.1-.9,2.6,0,3.8l11.6,16.3c.3.5.4,1.1,0,1.6-.3.5-.8.8-1.4.7l-20-1.9c-1.4-.2-2.7.6-3.2,1.9-.5,1.3-.2,2.7.9,3.7l15.5,12.8c.5.4.6.9.5,1.5-.2.6-.6,1-1.2,1.1l-19.8,3.3c-1.4.2-2.4,1.3-2.6,2.7s.5,2.7,1.8,3.3l18.2,8.3c.5.2.9.7.9,1.3s-.3,1.1-.9,1.3l-18.2,8.3c-1.3.6-2,1.9-1.8,3.3s1.2,2.5,2.6,2.7l19.8,3.3c.6,0,1,.5,1.2,1.1s0,1.1-.5,1.5l-15.5,12.8c-1.1.9-1.5,2.3-.9,3.7.5,1.3,1.8,2.1,3.2,1.9l20-1.9c.6,0,1.1.2,1.4.7.3.5.3,1.1,0,1.6l-11.6,16.3c-.8,1.2-.8,2.6,0,3.8.9,1.1,2.3,1.5,3.6,1l18.8-7c.5-.2,1.1,0,1.6.3.4.4.5,1,.3,1.6l-7,18.8c-.5,1.3,0,2.8,1,3.6,1.1.9,2.6.9,3.8,0l16.3-11.6c.5-.3,1.1-.4,1.6,0,.5.3.8.8.7,1.4l-1.9,20c0,1.4.6,2.7,1.9,3.2,1.3.5,2.7.2,3.7-.9l12.8-15.5c.4-.5.9-.6,1.5-.5.6.2,1,.6,1.1,1.2l3.3,19.8c.2,1.4,1.3,2.4,2.7,2.6h.4c1.2,0,2.3-.7,2.9-1.9l8.3-18.2c.5-1.1,2.2-1.1,2.7,0l8.3,18.2c.6,1.3,1.9,2,3.3,1.8s2.5-1.2,2.7-2.6l3.3-19.8c0-.6.5-1,1.1-1.2.6-.1,1.1,0,1.5.5l12.8,15.5c.9,1.1,2.3,1.5,3.7.9,1.3-.5,2.1-1.8,1.9-3.2l-1.9-20c0-.6.2-1.1.7-1.4.5-.3,1.1-.3,1.6,0l16.3,11.6c1.2.8,2.6.8,3.8,0,1.1-.9,1.5-2.3,1-3.6l-7-18.8c-.2-.6,0-1.1.3-1.6.4-.4,1-.5,1.6-.3l18.8,7c1.3.5,2.8,0,3.6-1,.9-1.1.9-2.6,0-3.8l-11.6-16.3c-.3-.5-.4-1.1,0-1.6.3-.5.8-.8,1.4-.7l20,1.9c1.4.1,2.7-.6,3.2-1.9.5-1.3.2-2.7-.9-3.7l-15.5-12.8c-.5-.4-.6-.9-.5-1.5.2-.6.6-1,1.2-1.1l19.8-3.3c1.4-.2,2.4-1.3,2.6-2.7.2-1.4-.5-2.7-1.8-3.3h0ZM100.3,145.9c-25,0-45.3-20.3-45.3-45.3s20.3-45.3,45.3-45.3,45.3,20.3,45.3,45.3-20.3,45.3-45.3,45.3Z"/>
</svg>